<?xml version="1.0" encoding="UTF-8" standalone="no"?>
<!DOCTYPE svg PUBLIC "-//W3C//DTD SVG 1.1//EN"
 "http://www.w3.org/Graphics/SVG/1.1/DTD/svg11.dtd">
<!-- Generated by graphviz version 9.0.0 (20230911.1827)
 -->
<!-- Title: G Pages: 1 -->
<svg width="528pt" height="785pt"
 viewBox="0.00 0.00 528.12 784.75" xmlns="http://www.w3.org/2000/svg" xmlns:xlink="http://www.w3.org/1999/xlink">
<g id="graph0" class="graph" transform="scale(1 1) rotate(0) translate(4 780.75)">
<title>G</title>
<polygon fill="white" stroke="none" points="-4,4 -4,-780.75 524.12,-780.75 524.12,4 -4,4"/>
<text text-anchor="middle" x="260.06" y="-753.75" font-family="Helvetica,Arial,sans-serif" font-size="20.00">Basic flows</text>
<!-- navigation -->
<g id="node1" class="node">
<title>navigation</title>
<polygon fill="lightgrey" stroke="none" points="183.75,-720 55.25,-720 55.25,-676 183.75,-676 183.75,-720"/>
<text text-anchor="middle" x="119.5" y="-702.7" font-family="Helvetica,Arial,sans-serif" font-size="14.00">Create navigation</text>
<text text-anchor="middle" x="119.5" y="-684.7" font-family="Helvetica,Arial,sans-serif" font-size="14.00">RakuDocs</text>
</g>
<!-- new_derivative -->
<g id="node5" class="node">
<title>new_derivative</title>
<polygon fill="lightgrey" stroke="none" points="306.38,-505 166.62,-505 166.62,-425 306.38,-425 306.38,-505"/>
<text text-anchor="middle" x="236.5" y="-487.7" font-family="Helvetica,Arial,sans-serif" font-size="14.00">add new</text>
<text text-anchor="middle" x="236.5" y="-469.7" font-family="Helvetica,Arial,sans-serif" font-size="14.00">derivative language</text>
<text text-anchor="middle" x="236.5" y="-451.7" font-family="Helvetica,Arial,sans-serif" font-size="14.00">from canonical</text>
<text text-anchor="middle" x="236.5" y="-433.7" font-family="Helvetica,Arial,sans-serif" font-size="14.00">&amp; navigation</text>
</g>
<!-- navigation&#45;&gt;new_derivative -->
<g id="edge5" class="edge">
<title>navigation&#45;&gt;new_derivative</title>
<path fill="none" stroke="black" stroke-width="2" stroke-dasharray="1,5" d="M130.09,-676.09C148.75,-639.26 187.89,-561.97 213.14,-512.11"/>
<polygon fill="black" stroke="black" stroke-width="2" points="214.7,-512.91 215.4,-507.66 211.58,-511.33 214.7,-512.91"/>
</g>
<!-- startup -->
<g id="node7" class="node">
<title>startup</title>
<polygon fill="lightgrey" stroke="none" points="188.38,-307 36.62,-307 36.62,-245 188.38,-245 188.38,-307"/>
<text text-anchor="middle" x="112.5" y="-289.7" font-family="Helvetica,Arial,sans-serif" font-size="14.00">Obtain last edit dates</text>
<text text-anchor="middle" x="112.5" y="-271.7" font-family="Helvetica,Arial,sans-serif" font-size="14.00">for all blocks in all</text>
<text text-anchor="middle" x="112.5" y="-253.7" font-family="Helvetica,Arial,sans-serif" font-size="14.00">pools</text>
</g>
<!-- navigation&#45;&gt;startup -->
<g id="edge4" class="edge">
<title>navigation&#45;&gt;startup</title>
<path fill="none" stroke="black" stroke-width="2" stroke-dasharray="1,5" d="M117.73,-676.44C115.66,-650.49 112.5,-604.47 112.5,-565 112.5,-565 112.5,-565 112.5,-365 112.5,-348.48 112.5,-330.21 112.5,-314.62"/>
<polygon fill="black" stroke="black" stroke-width="2" points="114.25,-314.76 112.5,-309.76 110.75,-314.76 114.25,-314.76"/>
</g>
<!-- other -->
<g id="node2" class="node">
<title>other</title>
<polygon fill="lightgrey" stroke="none" points="324.88,-720 206.12,-720 206.12,-676 324.88,-676 324.88,-720"/>
<text text-anchor="middle" x="265.5" y="-702.7" font-family="Helvetica,Arial,sans-serif" font-size="14.00">Documentation</text>
<text text-anchor="middle" x="265.5" y="-684.7" font-family="Helvetica,Arial,sans-serif" font-size="14.00">in other formats</text>
</g>
<!-- canonical -->
<g id="node4" class="node">
<title>canonical</title>
<polygon fill="lightgrey" stroke="none" points="415.75,-586 287.25,-586 287.25,-542 415.75,-542 415.75,-586"/>
<text text-anchor="middle" x="351.5" y="-568.7" font-family="Helvetica,Arial,sans-serif" font-size="14.00">Create &amp; pool</text>
<text text-anchor="middle" x="351.5" y="-550.7" font-family="Helvetica,Arial,sans-serif" font-size="14.00">canonical sources</text>
</g>
<!-- other&#45;&gt;canonical -->
<g id="edge1" class="edge">
<title>other&#45;&gt;canonical</title>
<path fill="none" stroke="black" stroke-width="2" stroke-dasharray="1,5" d="M274.66,-676.14C283.65,-656.67 298.4,-627.21 315,-604 317.97,-599.84 321.35,-595.67 324.83,-591.68"/>
<polygon fill="black" stroke="black" stroke-width="2" points="325.89,-593.12 327.94,-588.23 323.29,-590.78 325.89,-593.12"/>
<text text-anchor="middle" x="342.25" y="-644.7" font-family="Helvetica,Arial,sans-serif" font-size="14.00">convert</text>
<text text-anchor="middle" x="342.25" y="-626.7" font-family="Helvetica,Arial,sans-serif" font-size="14.00">to</text>
<text text-anchor="middle" x="342.25" y="-608.7" font-family="Helvetica,Arial,sans-serif" font-size="14.00">RakuDoc</text>
</g>
<!-- existing -->
<g id="node3" class="node">
<title>existing</title>
<polygon fill="lightgrey" stroke="none" points="520.12,-720 342.88,-720 342.88,-676 520.12,-676 520.12,-720"/>
<text text-anchor="middle" x="431.5" y="-702.7" font-family="Helvetica,Arial,sans-serif" font-size="14.00">Existing RakuDoc sources</text>
<text text-anchor="middle" x="431.5" y="-684.7" font-family="Helvetica,Arial,sans-serif" font-size="14.00">(eg. docs.raku.org)</text>
</g>
<!-- existing&#45;&gt;canonical -->
<g id="edge2" class="edge">
<title>existing&#45;&gt;canonical</title>
<path fill="none" stroke="black" stroke-width="2" stroke-dasharray="1,5" d="M418.82,-676.08C405.13,-653.49 383.26,-617.4 368.18,-592.52"/>
<polygon fill="black" stroke="black" stroke-width="2" points="369.77,-591.78 365.69,-588.41 366.78,-593.59 369.77,-591.78"/>
<text text-anchor="middle" x="422.88" y="-644.7" font-family="Helvetica,Arial,sans-serif" font-size="14.00">pull</text>
<text text-anchor="middle" x="422.88" y="-626.7" font-family="Helvetica,Arial,sans-serif" font-size="14.00">from</text>
<text text-anchor="middle" x="422.88" y="-608.7" font-family="Helvetica,Arial,sans-serif" font-size="14.00">repo</text>
</g>
<!-- canonical&#45;&gt;new_derivative -->
<g id="edge6" class="edge">
<title>canonical&#45;&gt;new_derivative</title>
<path fill="none" stroke="black" stroke-width="2" stroke-dasharray="1,5" d="M326.83,-542.19C315.61,-532.73 301.89,-521.15 288.56,-509.91"/>
<polygon fill="black" stroke="black" stroke-width="2" points="289.73,-508.61 284.78,-506.73 287.48,-511.29 289.73,-508.61"/>
</g>
<!-- derivative -->
<g id="node6" class="node">
<title>derivative</title>
<polygon fill="lightgrey" stroke="none" points="332.25,-388 140.75,-388 140.75,-344 332.25,-344 332.25,-388"/>
<text text-anchor="middle" x="236.5" y="-370.7" font-family="Helvetica,Arial,sans-serif" font-size="14.00">pool</text>
<text text-anchor="middle" x="236.5" y="-352.7" font-family="Helvetica,Arial,sans-serif" font-size="14.00">derivative language sources</text>
</g>
<!-- new_derivative&#45;&gt;derivative -->
<g id="edge3" class="edge">
<title>new_derivative&#45;&gt;derivative</title>
<path fill="none" stroke="black" stroke-width="2" stroke-dasharray="1,5" d="M236.5,-425.11C236.5,-415.24 236.5,-404.82 236.5,-395.57"/>
<polygon fill="black" stroke="black" stroke-width="2" points="238.25,-395.82 236.5,-390.82 234.75,-395.82 238.25,-395.82"/>
</g>
<!-- derivative&#45;&gt;startup -->
<g id="edge7" class="edge">
<title>derivative&#45;&gt;startup</title>
<path fill="none" stroke="black" stroke-width="2" stroke-dasharray="1,5" d="M207.11,-344.15C193.2,-334.27 176.23,-322.23 160.52,-311.08"/>
<polygon fill="black" stroke="black" stroke-width="2" points="161.9,-309.92 156.81,-308.45 159.88,-312.77 161.9,-309.92"/>
</g>
<!-- register -->
<g id="node8" class="node">
<title>register</title>
<polygon fill="lightgrey" stroke="none" points="199,-208 0,-208 0,-172 199,-172 199,-208"/>
<text text-anchor="middle" x="99.5" y="-185.7" font-family="Helvetica,Arial,sans-serif" font-size="14.00">Generate Document Registry</text>
</g>
<!-- startup&#45;&gt;register -->
<g id="edge8" class="edge">
<title>startup&#45;&gt;register</title>
<path fill="none" stroke="black" stroke-width="2" stroke-dasharray="1,5" d="M107.88,-245.15C106.37,-235.37 104.71,-224.64 103.26,-215.32"/>
<polygon fill="black" stroke="black" stroke-width="2" points="105.02,-215.23 102.53,-210.55 101.56,-215.76 105.02,-215.23"/>
</g>
<!-- generate -->
<g id="node9" class="node">
<title>generate</title>
<polygon fill="lightgrey" stroke="none" points="165.62,-135 27.38,-135 27.38,-73 165.62,-73 165.62,-135"/>
<text text-anchor="middle" x="96.5" y="-117.7" font-family="Helvetica,Arial,sans-serif" font-size="14.00">Generate web&#45;site</text>
<text text-anchor="middle" x="96.5" y="-99.7" font-family="Helvetica,Arial,sans-serif" font-size="14.00">from new/modified</text>
<text text-anchor="middle" x="96.5" y="-81.7" font-family="Helvetica,Arial,sans-serif" font-size="14.00">sources</text>
</g>
<!-- register&#45;&gt;generate -->
<g id="edge9" class="edge">
<title>register&#45;&gt;generate</title>
<path fill="none" stroke="black" stroke-width="2" stroke-dasharray="1,5" d="M98.89,-172C98.59,-163.52 98.21,-152.9 97.84,-142.63"/>
<polygon fill="black" stroke="black" stroke-width="2" points="99.6,-142.85 97.68,-137.92 96.11,-142.98 99.6,-142.85"/>
</g>
<!-- publish -->
<g id="node10" class="node">
<title>publish</title>
<polygon fill="lightgrey" stroke="none" points="178.5,-36 12.5,-36 12.5,0 178.5,0 178.5,-36"/>
<text text-anchor="middle" x="95.5" y="-13.7" font-family="Helvetica,Arial,sans-serif" font-size="14.00">Publication on web&#45;site</text>
</g>
<!-- generate&#45;&gt;publish -->
<g id="edge10" class="edge">
<title>generate&#45;&gt;publish</title>
<path fill="none" stroke="black" stroke-width="2" stroke-dasharray="1,5" d="M96.14,-73.15C96.03,-63.37 95.9,-52.64 95.79,-43.32"/>
<polygon fill="black" stroke="black" stroke-width="2" points="97.54,-43.57 95.73,-38.59 94.04,-43.61 97.54,-43.57"/>
</g>
<!-- edit -->
<g id="node11" class="node">
<title>edit</title>
<polygon fill="lightgrey" stroke="none" points="435.12,-36 341.88,-36 341.88,0 435.12,0 435.12,-36"/>
<text text-anchor="middle" x="388.5" y="-13.7" font-family="Helvetica,Arial,sans-serif" font-size="14.00">Edit sources</text>
</g>
<!-- publish&#45;&gt;edit -->
<g id="edge11" class="edge">
<title>publish&#45;&gt;edit</title>
<path fill="none" stroke="black" stroke-width="2" stroke-dasharray="1,5" d="M178.29,-18C228.15,-18 290.25,-18 333.98,-18"/>
<polygon fill="black" stroke="black" stroke-width="2" points="333.9,-19.75 338.9,-18 333.9,-16.25 333.9,-19.75"/>
<text text-anchor="middle" x="260.19" y="-25.7" font-family="Helvetica,Arial,sans-serif" font-size="14.00">edit suggestions public</text>
</g>
<!-- edit&#45;&gt;canonical -->
<g id="edge13" class="edge">
<title>edit&#45;&gt;canonical</title>
<path fill="none" stroke="black" stroke-width="2" stroke-dasharray="1,5" d="M388.5,-35.73C388.5,-52.69 388.5,-79.67 388.5,-103 388.5,-466 388.5,-466 388.5,-466 388.5,-490.72 377.88,-516.8 368.02,-535.68"/>
<polygon fill="black" stroke="black" stroke-width="2" points="366.72,-534.4 365.88,-539.63 369.8,-536.07 366.72,-534.4"/>
<text text-anchor="middle" x="440.25" y="-280.7" font-family="Helvetica,Arial,sans-serif" font-size="14.00">authorisation by</text>
<text text-anchor="middle" x="440.25" y="-262.7" font-family="Helvetica,Arial,sans-serif" font-size="14.00">developer</text>
</g>
<!-- edit&#45;&gt;derivative -->
<g id="edge12" class="edge">
<title>edit&#45;&gt;derivative</title>
<path fill="none" stroke="black" stroke-width="2" stroke-dasharray="1,5" d="M342.07,-24.9C297.37,-33.49 236.5,-54.16 236.5,-103 236.5,-277 236.5,-277 236.5,-277 236.5,-296.69 236.5,-318.87 236.5,-336.03"/>
<polygon fill="black" stroke="black" stroke-width="2" points="234.75,-335.99 236.5,-340.99 238.25,-335.99 234.75,-335.99"/>
<text text-anchor="middle" x="298.38" y="-194.7" font-family="Helvetica,Arial,sans-serif" font-size="14.00">authorisation by</text>
<text text-anchor="middle" x="298.38" y="-176.7" font-family="Helvetica,Arial,sans-serif" font-size="14.00">derivative language</text>
</g>
</g>
</svg>
