<?xml version="1.0" encoding="UTF-8" standalone="no"?>
<!DOCTYPE svg PUBLIC "-//W3C//DTD SVG 1.1//EN"
 "http://www.w3.org/Graphics/SVG/1.1/DTD/svg11.dtd">
<!-- Generated by graphviz version 9.0.0 (20230911.1827)
 -->
<!-- Title: G2 Pages: 1 -->
<svg width="691pt" height="145pt"
 viewBox="0.00 0.00 690.50 144.75" xmlns="http://www.w3.org/2000/svg" xmlns:xlink="http://www.w3.org/1999/xlink">
<g id="graph0" class="graph" transform="scale(1 1) rotate(0) translate(4 140.75)">
<title>G2</title>
<polygon fill="white" stroke="none" points="-4,4 -4,-140.75 686.5,-140.75 686.5,4 -4,4"/>
<text text-anchor="middle" x="341.25" y="-113.75" font-family="Helvetica,Arial,sans-serif" font-size="20.00">Basic flows</text>
<!-- database -->
<g id="node1" class="node">
<title>database</title>
<polygon fill="lightgrey" stroke="none" points="102.25,-71 0,-71 0,-9 102.25,-9 102.25,-71"/>
<text text-anchor="middle" x="51.12" y="-53.7" font-family="Helvetica,Arial,sans-serif" font-size="14.00">SQL database</text>
<text text-anchor="middle" x="51.12" y="-35.7" font-family="Helvetica,Arial,sans-serif" font-size="14.00">Fragments of</text>
<text text-anchor="middle" x="51.12" y="-17.7" font-family="Helvetica,Arial,sans-serif" font-size="14.00">HTML pages</text>
</g>
<!-- server -->
<g id="node2" class="node">
<title>server</title>
<polygon fill="lightgrey" stroke="none" points="410,-80 248.5,-80 248.5,0 410,0 410,-80"/>
<text text-anchor="middle" x="329.25" y="-62.7" font-family="Helvetica,Arial,sans-serif" font-size="14.00">Web Server</text>
<text text-anchor="middle" x="329.25" y="-44.7" font-family="Helvetica,Arial,sans-serif" font-size="14.00">Static IPCompile pages</text>
<text text-anchor="middle" x="329.25" y="-26.7" font-family="Helvetica,Arial,sans-serif" font-size="14.00">tfrom fragments</text>
<text text-anchor="middle" x="329.25" y="-8.7" font-family="Helvetica,Arial,sans-serif" font-size="14.00">tfrom requests</text>
</g>
<!-- database&#45;&gt;server -->
<g id="edge1" class="edge">
<title>database&#45;&gt;server</title>
<path fill="none" stroke="black" stroke-width="2" stroke-dasharray="1,5" d="M102.13,-40C140.69,-40 194.99,-40 240.71,-40"/>
<polygon fill="black" stroke="black" stroke-width="2" points="240.53,-41.75 245.53,-40 240.53,-38.25 240.53,-41.75"/>
<text text-anchor="middle" x="175.38" y="-44.7" font-family="Helvetica,Arial,sans-serif" font-size="14.00">fragments &amp; data</text>
</g>
<!-- server&#45;&gt;database -->
<g id="edge2" class="edge">
<title>server&#45;&gt;database</title>
<path fill="none" stroke="black" stroke-width="2" stroke-dasharray="1,5" d="M248.74,-20.58C242.6,-19.55 236.46,-18.66 230.5,-18 181.8,-12.59 168.65,-10.38 120.25,-18 116.77,-18.55 113.23,-19.24 109.68,-20.05"/>
<polygon fill="black" stroke="black" stroke-width="2" points="109.29,-18.34 104.86,-21.24 110.13,-21.74 109.29,-18.34"/>
<text text-anchor="middle" x="175.38" y="-22.7" font-family="Helvetica,Arial,sans-serif" font-size="14.00">SQL requests</text>
</g>
<!-- user -->
<g id="node3" class="node">
<title>user</title>
<polygon fill="lightgrey" stroke="none" points="682.5,-62 533.75,-62 533.75,-18 682.5,-18 682.5,-62"/>
<text text-anchor="middle" x="608.12" y="-44.7" font-family="Helvetica,Arial,sans-serif" font-size="14.00">Browser</text>
<text text-anchor="middle" x="608.12" y="-26.7" font-family="Helvetica,Arial,sans-serif" font-size="14.00">renders full webpage</text>
</g>
<!-- server&#45;&gt;user -->
<g id="edge3" class="edge">
<title>server&#45;&gt;user</title>
<path fill="none" stroke="black" stroke-width="2" stroke-dasharray="1,5" d="M409.96,-40C446.5,-40 489.74,-40 526.41,-40"/>
<polygon fill="black" stroke="black" stroke-width="2" points="526.1,-41.75 531.1,-40 526.1,-38.25 526.1,-41.75"/>
<text text-anchor="middle" x="471.88" y="-44.7" font-family="Helvetica,Arial,sans-serif" font-size="14.00">Full web page</text>
</g>
<!-- user&#45;&gt;server -->
<g id="edge4" class="edge">
<title>user&#45;&gt;server</title>
<path fill="none" stroke="black" stroke-width="2" stroke-dasharray="1,5" d="M533.84,-20.76C527.75,-19.65 521.66,-18.7 515.75,-18 477.02,-13.4 466.76,-13.69 428,-18 424.55,-18.38 421.05,-18.84 417.52,-19.36"/>
<polygon fill="black" stroke="black" stroke-width="2" points="417.41,-17.6 412.75,-20.11 417.96,-21.06 417.41,-17.6"/>
<text text-anchor="middle" x="471.88" y="-22.7" font-family="Helvetica,Arial,sans-serif" font-size="14.00">Data request</text>
</g>
</g>
</svg>
