<?xml version="1.0" encoding="UTF-8" standalone="no"?>
<!DOCTYPE svg PUBLIC "-//W3C//DTD SVG 1.1//EN"
 "http://www.w3.org/Graphics/SVG/1.1/DTD/svg11.dtd">
<!-- Generated by graphviz version 9.0.0 (20230911.1827)
 -->
<!-- Title: G3 Pages: 1 -->
<svg width="745pt" height="314pt"
 viewBox="0.00 0.00 744.50 313.75" xmlns="http://www.w3.org/2000/svg" xmlns:xlink="http://www.w3.org/1999/xlink">
<g id="graph0" class="graph" transform="scale(1 1) rotate(0) translate(4 309.75)">
<title>G3</title>
<polygon fill="white" stroke="none" points="-4,4 -4,-309.75 740.5,-309.75 740.5,4 -4,4"/>
<text text-anchor="middle" x="368.25" y="-282.75" font-family="Helvetica,Arial,sans-serif" font-size="20.00">Headless example</text>
<!-- source -->
<g id="node1" class="node">
<title>source</title>
<polygon fill="lightgrey" stroke="none" points="136,-249 0,-249 0,-213 136,-213 136,-249"/>
<text text-anchor="middle" x="68" y="-226.7" font-family="Helvetica,Arial,sans-serif" font-size="14.00">Server of web page</text>
</g>
<!-- cache -->
<g id="node3" class="node">
<title>cache</title>
<polygon fill="lightgrey" stroke="none" points="460,-249 288,-249 288,-213 460,-213 460,-249"/>
<text text-anchor="middle" x="374" y="-226.7" font-family="Helvetica,Arial,sans-serif" font-size="14.00">Cache server/on internet</text>
</g>
<!-- source&#45;&gt;cache -->
<g id="edge1" class="edge">
<title>source&#45;&gt;cache</title>
<path fill="none" stroke="black" stroke-width="2" stroke-dasharray="1,5" d="M135.91,-231C178.35,-231 233.61,-231 280.2,-231"/>
<polygon fill="black" stroke="black" stroke-width="2" points="280.17,-232.75 285.17,-231 280.17,-229.25 280.17,-232.75"/>
<text text-anchor="middle" x="212" y="-238.7" font-family="Helvetica,Arial,sans-serif" font-size="14.00">Pushed to cloud once</text>
</g>
<!-- supplier -->
<g id="node2" class="node">
<title>supplier</title>
<polygon fill="lightgrey" stroke="none" points="451.12,-36 276.88,-36 276.88,0 451.12,0 451.12,-36"/>
<text text-anchor="middle" x="364" y="-13.7" font-family="Helvetica,Arial,sans-serif" font-size="14.00">Factory suppling product</text>
</g>
<!-- user -->
<g id="node4" class="node">
<title>user</title>
<polygon fill="#88ff00" fill-opacity="0.133333" stroke="none" points="736.5,-159 11.5,-159 11.5,-73 736.5,-73 736.5,-159"/>
<polygon fill="none" stroke="#000000" stroke-opacity="0.266667" points="19.5,-129 19.5,-155 728.5,-155 728.5,-129 19.5,-129"/>
<text text-anchor="start" x="359.38" y="-137.7" font-family="Helvetica,Arial,sans-serif" font-size="14.00">User</text>
<polygon fill="none" stroke="#000000" stroke-opacity="0.266667" points="19.5,-103 19.5,-129 255.5,-129 255.5,-103 19.5,-103"/>
<text text-anchor="start" x="82.38" y="-111.7" font-family="Helvetica,Arial,sans-serif" font-size="14.00">Section with map</text>
<polygon fill="none" stroke="#000000" stroke-opacity="0.266667" points="255.5,-103 255.5,-129 473.5,-129 473.5,-103 255.5,-103"/>
<text text-anchor="start" x="295.5" y="-111.7" font-family="Helvetica,Arial,sans-serif" font-size="14.00">Section with products</text>
<polygon fill="none" stroke="#000000" stroke-opacity="0.266667" points="473.5,-103 473.5,-129 728.5,-129 728.5,-103 473.5,-103"/>
<text text-anchor="start" x="522.62" y="-111.7" font-family="Helvetica,Arial,sans-serif" font-size="14.00">Section with stock prices</text>
<polygon fill="none" stroke="#000000" stroke-opacity="0.266667" points="19.5,-77 19.5,-103 255.5,-103 255.5,-77 19.5,-77"/>
<text text-anchor="start" x="23.5" y="-85.7" font-family="Helvetica,Arial,sans-serif" font-size="14.00">Websocket\npointing at\ntile server</text>
<polygon fill="none" stroke="#000000" stroke-opacity="0.266667" points="255.5,-77 255.5,-103 473.5,-103 473.5,-77 255.5,-77"/>
<text text-anchor="start" x="259.5" y="-85.7" font-family="Helvetica,Arial,sans-serif" font-size="14.00">Websocket\npointing at\nfactory</text>
<polygon fill="none" stroke="#000000" stroke-opacity="0.266667" points="473.5,-77 473.5,-103 728.5,-103 728.5,-77 473.5,-77"/>
<text text-anchor="start" x="477.25" y="-85.7" font-family="Helvetica,Arial,sans-serif" font-size="14.00">Websocket\npointing at\nstock market</text>
</g>
<!-- cache&#45;&gt;user -->
<g id="edge2" class="edge">
<title>cache&#45;&gt;user</title>
<path fill="none" stroke="black" stroke-width="2" stroke-dasharray="1,5" d="M374,-213.33C374,-200.87 374,-183.15 374,-166.31"/>
<polygon fill="black" stroke="black" stroke-width="2" points="375.75,-166.68 374,-161.68 372.25,-166.68 375.75,-166.68"/>
<text text-anchor="middle" x="443.38" y="-181.7" font-family="Helvetica,Arial,sans-serif" font-size="14.00">Static content of page</text>
</g>
<!-- user&#45;&gt;supplier -->
<g id="edge4" class="edge">
<title>user:products&#45;&gt;supplier</title>
<path fill="none" stroke="black" stroke-width="2" stroke-dasharray="1,5" d="M364,-76C364,-65.49 364,-53.88 364,-43.9"/>
<polygon fill="black" stroke="black" stroke-width="2" points="365.75,-43.99 364,-38.99 362.25,-43.99 365.75,-43.99"/>
</g>
<!-- maps -->
<g id="node5" class="node">
<title>maps</title>
<polygon fill="lightgrey" stroke="none" points="191.5,-36 82.5,-36 82.5,0 191.5,0 191.5,-36"/>
<text text-anchor="middle" x="137" y="-13.7" font-family="Helvetica,Arial,sans-serif" font-size="14.00">Map tile server</text>
</g>
<!-- user&#45;&gt;maps -->
<g id="edge3" class="edge">
<title>user:map&#45;&gt;maps</title>
<path fill="none" stroke="black" stroke-width="2" stroke-dasharray="1,5" d="M137,-76C137,-65.49 137,-53.88 137,-43.9"/>
<polygon fill="black" stroke="black" stroke-width="2" points="138.75,-43.99 137,-38.99 135.25,-43.99 138.75,-43.99"/>
</g>
<!-- market -->
<g id="node6" class="node">
<title>market</title>
<polygon fill="lightgrey" stroke="none" points="671.25,-36 530.75,-36 530.75,0 671.25,0 671.25,-36"/>
<text text-anchor="middle" x="601" y="-13.7" font-family="Helvetica,Arial,sans-serif" font-size="14.00">Stock market server</text>
</g>
<!-- user&#45;&gt;market -->
<g id="edge5" class="edge">
<title>user:stock&#45;&gt;market</title>
<path fill="none" stroke="black" stroke-width="2" stroke-dasharray="1,5" d="M601,-76C601,-65.49 601,-53.88 601,-43.9"/>
<polygon fill="black" stroke="black" stroke-width="2" points="602.75,-43.99 601,-38.99 599.25,-43.99 602.75,-43.99"/>
</g>
</g>
</svg>
