<?xml version="1.0" encoding="UTF-8" standalone="no"?>
<!DOCTYPE svg PUBLIC "-//W3C//DTD SVG 1.1//EN"
 "http://www.w3.org/Graphics/SVG/1.1/DTD/svg11.dtd">
<!-- Generated by graphviz version 9.0.0 (20230911.1827)
 -->
<!-- Title: G1 Pages: 1 -->
<svg width="708pt" height="806pt"
 viewBox="0.00 0.00 707.88 805.50" xmlns="http://www.w3.org/2000/svg" xmlns:xlink="http://www.w3.org/1999/xlink">
<g id="graph0" class="graph" transform="scale(1 1) rotate(0) translate(4 801.5)">
<title>G1</title>
<polygon fill="white" stroke="none" points="-4,4 -4,-801.5 703.88,-801.5 703.88,4 -4,4"/>
<text text-anchor="middle" x="349.94" y="-774.5" font-family="Helvetica,Arial,sans-serif" font-size="20.00">Overall flows</text>
<g id="clust5" class="cluster">
<title>build</title>
<path fill="#eceff1" stroke="blue" d="M21.25,-8C21.25,-8 213.25,-8 213.25,-8 219.25,-8 225.25,-14 225.25,-20 225.25,-20 225.25,-351.75 225.25,-351.75 225.25,-357.75 219.25,-363.75 213.25,-363.75 213.25,-363.75 21.25,-363.75 21.25,-363.75 15.25,-363.75 9.25,-357.75 9.25,-351.75 9.25,-351.75 9.25,-20 9.25,-20 9.25,-14 15.25,-8 21.25,-8"/>
<text text-anchor="middle" x="117.25" y="-17.75" font-family="Helvetica,Arial,sans-serif" font-size="20.00">Build</text>
</g>
<!-- new_navigation -->
<g id="node1" class="node">
<title>new_navigation</title>
<path fill="none" stroke="black" d="M116.5,-740.75C116.5,-740.75 12,-740.75 12,-740.75 6,-740.75 0,-734.75 0,-728.75 0,-728.75 0,-708.75 0,-708.75 0,-702.75 6,-696.75 12,-696.75 12,-696.75 116.5,-696.75 116.5,-696.75 122.5,-696.75 128.5,-702.75 128.5,-708.75 128.5,-708.75 128.5,-728.75 128.5,-728.75 128.5,-734.75 122.5,-740.75 116.5,-740.75"/>
<text text-anchor="middle" x="64.25" y="-723.45" font-family="Times" font-size="14.00">Create navigation</text>
<text text-anchor="middle" x="64.25" y="-705.45" font-family="Times" font-size="14.00">RakuDocs</text>
</g>
<!-- navigation -->
<g id="node6" class="node">
<title>navigation</title>
<path fill="none" stroke="black" d="M109.75,-436.75C109.75,-436.75 18.75,-436.75 18.75,-436.75 12.75,-436.75 6.75,-430.75 6.75,-424.75 6.75,-424.75 6.75,-404.75 6.75,-404.75 6.75,-398.75 12.75,-392.75 18.75,-392.75 18.75,-392.75 109.75,-392.75 109.75,-392.75 115.75,-392.75 121.75,-398.75 121.75,-404.75 121.75,-404.75 121.75,-424.75 121.75,-424.75 121.75,-430.75 115.75,-436.75 109.75,-436.75"/>
<text text-anchor="middle" x="64.25" y="-419.45" font-family="Times" font-size="14.00">Pool navigation</text>
<text text-anchor="middle" x="64.25" y="-401.45" font-family="Times" font-size="14.00">RakuDocs</text>
</g>
<!-- new_navigation&#45;&gt;navigation -->
<g id="edge2" class="edge">
<title>new_navigation&#45;&gt;navigation</title>
<path fill="none" stroke="black" stroke-width="4" stroke-dasharray="1,5" d="M64.25,-696.51C64.25,-644.42 64.25,-510.05 64.25,-448.01"/>
<polygon fill="black" stroke="black" stroke-width="4" points="66,-448.02 64.25,-443.02 62.5,-448.02 66,-448.02"/>
</g>
<!-- existing -->
<g id="node2" class="node">
<title>existing</title>
<path fill="none" stroke="black" d="M687.88,-588.75C687.88,-588.75 534.62,-588.75 534.62,-588.75 528.62,-588.75 522.62,-582.75 522.62,-576.75 522.62,-576.75 522.62,-556.75 522.62,-556.75 522.62,-550.75 528.62,-544.75 534.62,-544.75 534.62,-544.75 687.88,-544.75 687.88,-544.75 693.88,-544.75 699.88,-550.75 699.88,-556.75 699.88,-556.75 699.88,-576.75 699.88,-576.75 699.88,-582.75 693.88,-588.75 687.88,-588.75"/>
<text text-anchor="middle" x="611.25" y="-571.45" font-family="Times" font-size="14.00">Existing RakuDoc sources</text>
<text text-anchor="middle" x="611.25" y="-553.45" font-family="Times" font-size="14.00">(eg. docs.raku.org)</text>
</g>
<!-- canonical -->
<g id="node7" class="node">
<title>canonical</title>
<path fill="none" stroke="black" d="M465.5,-436.75C465.5,-436.75 361,-436.75 361,-436.75 355,-436.75 349,-430.75 349,-424.75 349,-424.75 349,-404.75 349,-404.75 349,-398.75 355,-392.75 361,-392.75 361,-392.75 465.5,-392.75 465.5,-392.75 471.5,-392.75 477.5,-398.75 477.5,-404.75 477.5,-404.75 477.5,-424.75 477.5,-424.75 477.5,-430.75 471.5,-436.75 465.5,-436.75"/>
<text text-anchor="middle" x="413.25" y="-419.45" font-family="Times" font-size="14.00">Pool</text>
<text text-anchor="middle" x="413.25" y="-401.45" font-family="Times" font-size="14.00">canonical sources</text>
</g>
<!-- existing&#45;&gt;canonical -->
<g id="edge4" class="edge">
<title>existing&#45;&gt;canonical</title>
<path fill="none" stroke="black" stroke-width="4" stroke-dasharray="1,5" d="M582.88,-544.26C547.89,-517.75 488.33,-472.63 449.9,-443.52"/>
<polygon fill="black" stroke="black" stroke-width="4" points="451.43,-442.48 446.39,-440.86 449.32,-445.27 451.43,-442.48"/>
<text text-anchor="middle" x="550.62" y="-495.45" font-family="Helvetica,Arial,sans-serif" font-size="14.00">pull</text>
<text text-anchor="middle" x="550.62" y="-477.45" font-family="Helvetica,Arial,sans-serif" font-size="14.00">from</text>
<text text-anchor="middle" x="550.62" y="-459.45" font-family="Helvetica,Arial,sans-serif" font-size="14.00">repo</text>
</g>
<!-- other -->
<g id="node3" class="node">
<title>other</title>
<path fill="none" stroke="black" d="M460.62,-740.75C460.62,-740.75 365.88,-740.75 365.88,-740.75 359.88,-740.75 353.88,-734.75 353.88,-728.75 353.88,-728.75 353.88,-708.75 353.88,-708.75 353.88,-702.75 359.88,-696.75 365.88,-696.75 365.88,-696.75 460.62,-696.75 460.62,-696.75 466.62,-696.75 472.62,-702.75 472.62,-708.75 472.62,-708.75 472.62,-728.75 472.62,-728.75 472.62,-734.75 466.62,-740.75 460.62,-740.75"/>
<text text-anchor="middle" x="413.25" y="-723.45" font-family="Times" font-size="14.00">Documentation</text>
<text text-anchor="middle" x="413.25" y="-705.45" font-family="Times" font-size="14.00">in other formats</text>
</g>
<!-- converted -->
<g id="node4" class="node">
<title>converted</title>
<path fill="none" stroke="black" d="M492.88,-584.75C492.88,-584.75 333.62,-584.75 333.62,-584.75 327.62,-584.75 321.62,-578.75 321.62,-572.75 321.62,-572.75 321.62,-560.75 321.62,-560.75 321.62,-554.75 327.62,-548.75 333.62,-548.75 333.62,-548.75 492.88,-548.75 492.88,-548.75 498.88,-548.75 504.88,-554.75 504.88,-560.75 504.88,-560.75 504.88,-572.75 504.88,-572.75 504.88,-578.75 498.88,-584.75 492.88,-584.75"/>
<text text-anchor="middle" x="413.25" y="-562.45" font-family="Times" font-size="14.00">Repo of converted sources</text>
</g>
<!-- other&#45;&gt;converted -->
<g id="edge1" class="edge">
<title>other&#45;&gt;converted</title>
<path fill="none" stroke="black" stroke-width="4" stroke-dasharray="1,5" d="M413.25,-696.26C413.25,-669.8 413.25,-624.8 413.25,-595.68"/>
<polygon fill="black" stroke="black" stroke-width="4" points="415,-596.06 413.25,-591.06 411.5,-596.06 415,-596.06"/>
<text text-anchor="middle" x="441" y="-665.45" font-family="Helvetica,Arial,sans-serif" font-size="14.00">convert</text>
<text text-anchor="middle" x="441" y="-647.45" font-family="Helvetica,Arial,sans-serif" font-size="14.00">to</text>
<text text-anchor="middle" x="441" y="-629.45" font-family="Helvetica,Arial,sans-serif" font-size="14.00">RakuDoc</text>
</g>
<!-- converted&#45;&gt;canonical -->
<g id="edge3" class="edge">
<title>converted&#45;&gt;canonical</title>
<path fill="none" stroke="black" stroke-width="4" stroke-dasharray="1,5" d="M413.25,-548.54C413.25,-524.11 413.25,-478.93 413.25,-448.12"/>
<polygon fill="black" stroke="black" stroke-width="4" points="415,-448.14 413.25,-443.14 411.5,-448.14 415,-448.14"/>
<text text-anchor="middle" x="428.62" y="-495.45" font-family="Helvetica,Arial,sans-serif" font-size="14.00">pull</text>
<text text-anchor="middle" x="428.62" y="-477.45" font-family="Helvetica,Arial,sans-serif" font-size="14.00">from</text>
<text text-anchor="middle" x="428.62" y="-459.45" font-family="Helvetica,Arial,sans-serif" font-size="14.00">repo</text>
</g>
<!-- new_derivative -->
<g id="node5" class="node">
<title>new_derivative</title>
<path fill="none" stroke="black" d="M291.12,-606.75C291.12,-606.75 175.38,-606.75 175.38,-606.75 169.38,-606.75 163.38,-600.75 163.38,-594.75 163.38,-594.75 163.38,-538.75 163.38,-538.75 163.38,-532.75 169.38,-526.75 175.38,-526.75 175.38,-526.75 291.12,-526.75 291.12,-526.75 297.12,-526.75 303.12,-532.75 303.12,-538.75 303.12,-538.75 303.12,-594.75 303.12,-594.75 303.12,-600.75 297.12,-606.75 291.12,-606.75"/>
<text text-anchor="middle" x="233.25" y="-589.45" font-family="Times" font-size="14.00">add new</text>
<text text-anchor="middle" x="233.25" y="-571.45" font-family="Times" font-size="14.00">derivative language</text>
<text text-anchor="middle" x="233.25" y="-553.45" font-family="Times" font-size="14.00">from canonical</text>
<text text-anchor="middle" x="233.25" y="-535.45" font-family="Times" font-size="14.00">&amp; navigation</text>
</g>
<!-- derivative -->
<g id="node8" class="node">
<title>derivative</title>
<path fill="none" stroke="black" d="M319,-436.75C319,-436.75 151.5,-436.75 151.5,-436.75 145.5,-436.75 139.5,-430.75 139.5,-424.75 139.5,-424.75 139.5,-404.75 139.5,-404.75 139.5,-398.75 145.5,-392.75 151.5,-392.75 151.5,-392.75 319,-392.75 319,-392.75 325,-392.75 331,-398.75 331,-404.75 331,-404.75 331,-424.75 331,-424.75 331,-430.75 325,-436.75 319,-436.75"/>
<text text-anchor="middle" x="235.25" y="-419.45" font-family="Times" font-size="14.00">pool</text>
<text text-anchor="middle" x="235.25" y="-401.45" font-family="Times" font-size="14.00">derivative language sources</text>
</g>
<!-- new_derivative&#45;&gt;derivative -->
<g id="edge5" class="edge">
<title>new_derivative&#45;&gt;derivative</title>
<path fill="none" stroke="black" stroke-width="4" stroke-dasharray="1,5" d="M233.78,-526.34C234.1,-501.83 234.52,-470.73 234.82,-447.76"/>
<polygon fill="black" stroke="black" stroke-width="4" points="236.57,-447.96 234.89,-442.93 233.07,-447.91 236.57,-447.96"/>
</g>
<!-- navigation&#45;&gt;new_derivative -->
<g id="edge6" class="edge">
<title>navigation&#45;&gt;new_derivative</title>
<path fill="none" stroke="#000000" stroke-width="2" stroke-opacity="0.533333" d="M88.05,-436.88C112.61,-458.68 151.66,-493.33 183.07,-521.22"/>
<polygon fill="none" stroke="#000000" stroke-width="2" stroke-opacity="0.533333" points="183.01,-521.16 186.58,-521.66 187.5,-525.14 183.93,-524.65 183.01,-521.16"/>
</g>
<!-- startup -->
<g id="node9" class="node">
<title>startup</title>
<path fill="none" stroke="black" d="M199.12,-355.75C199.12,-355.75 71.38,-355.75 71.38,-355.75 65.38,-355.75 59.38,-349.75 59.38,-343.75 59.38,-343.75 59.38,-305.75 59.38,-305.75 59.38,-299.75 65.38,-293.75 71.38,-293.75 71.38,-293.75 199.12,-293.75 199.12,-293.75 205.12,-293.75 211.12,-299.75 211.12,-305.75 211.12,-305.75 211.12,-343.75 211.12,-343.75 211.12,-349.75 205.12,-355.75 199.12,-355.75"/>
<text text-anchor="middle" x="135.25" y="-338.45" font-family="Times" font-size="14.00">Obtain last edit dates</text>
<text text-anchor="middle" x="135.25" y="-320.45" font-family="Times" font-size="14.00">for all blocks in all</text>
<text text-anchor="middle" x="135.25" y="-302.45" font-family="Times" font-size="14.00">pools</text>
</g>
<!-- navigation&#45;&gt;startup -->
<g id="edge9" class="edge">
<title>navigation&#45;&gt;startup</title>
<path fill="none" stroke="black" stroke-width="4" stroke-dasharray="1,5" d="M81.44,-392.45C88.16,-384.11 96.09,-374.28 103.77,-364.77"/>
<polygon fill="black" stroke="black" stroke-width="4" points="105.13,-365.87 106.91,-360.88 102.4,-363.67 105.13,-365.87"/>
</g>
<!-- canonical&#45;&gt;new_derivative -->
<g id="edge7" class="edge">
<title>canonical&#45;&gt;new_derivative</title>
<path fill="none" stroke="#000000" stroke-width="2" stroke-opacity="0.533333" d="M387.64,-437.09C361.47,-458.9 320.03,-493.43 286.67,-521.23"/>
<polygon fill="none" stroke="#000000" stroke-width="2" stroke-opacity="0.533333" points="286.54,-521.34 285.51,-524.8 281.93,-525.19 282.95,-521.73 286.54,-521.34"/>
</g>
<!-- canonical&#45;&gt;startup -->
<g id="edge10" class="edge">
<title>canonical&#45;&gt;startup</title>
<path fill="none" stroke="black" stroke-width="4" stroke-dasharray="1,5" d="M348.77,-393.34C311.07,-381.41 262.99,-366.19 222,-353.21"/>
<polygon fill="black" stroke="black" stroke-width="4" points="222.53,-351.54 217.24,-351.7 221.48,-354.88 222.53,-351.54"/>
</g>
<!-- derivative&#45;&gt;startup -->
<g id="edge8" class="edge">
<title>derivative&#45;&gt;startup</title>
<path fill="none" stroke="black" stroke-width="4" stroke-dasharray="1,5" d="M211.04,-392.45C201.09,-383.69 189.26,-373.28 177.94,-363.31"/>
<polygon fill="black" stroke="black" stroke-width="4" points="179.27,-362.16 174.36,-360.17 176.96,-364.79 179.27,-362.16"/>
</g>
<!-- register -->
<g id="node10" class="node">
<title>register</title>
<path fill="none" stroke="black" d="M204.75,-256.75C204.75,-256.75 29.75,-256.75 29.75,-256.75 23.75,-256.75 17.75,-250.75 17.75,-244.75 17.75,-244.75 17.75,-232.75 17.75,-232.75 17.75,-226.75 23.75,-220.75 29.75,-220.75 29.75,-220.75 204.75,-220.75 204.75,-220.75 210.75,-220.75 216.75,-226.75 216.75,-232.75 216.75,-232.75 216.75,-244.75 216.75,-244.75 216.75,-250.75 210.75,-256.75 204.75,-256.75"/>
<text text-anchor="middle" x="117.25" y="-234.45" font-family="Times" font-size="14.00">Generate Document Registry</text>
</g>
<!-- startup&#45;&gt;register -->
<g id="edge11" class="edge">
<title>startup&#45;&gt;register</title>
<path fill="none" stroke="black" stroke-width="4" stroke-dasharray="1,5" d="M128.75,-293.42C126.95,-285.02 125.01,-275.95 123.24,-267.69"/>
<polygon fill="black" stroke="black" stroke-width="4" points="124.99,-267.52 122.23,-263 121.57,-268.25 124.99,-267.52"/>
</g>
<!-- generate -->
<g id="node11" class="node">
<title>generate</title>
<path fill="none" stroke="black" d="M174.38,-183.75C174.38,-183.75 60.12,-183.75 60.12,-183.75 54.12,-183.75 48.12,-177.75 48.12,-171.75 48.12,-171.75 48.12,-133.75 48.12,-133.75 48.12,-127.75 54.12,-121.75 60.12,-121.75 60.12,-121.75 174.38,-121.75 174.38,-121.75 180.38,-121.75 186.38,-127.75 186.38,-133.75 186.38,-133.75 186.38,-171.75 186.38,-171.75 186.38,-177.75 180.38,-183.75 174.38,-183.75"/>
<text text-anchor="middle" x="117.25" y="-166.45" font-family="Times" font-size="14.00">Generate web&#45;site</text>
<text text-anchor="middle" x="117.25" y="-148.45" font-family="Times" font-size="14.00">from new/modified</text>
<text text-anchor="middle" x="117.25" y="-130.45" font-family="Times" font-size="14.00">sources</text>
</g>
<!-- register&#45;&gt;generate -->
<g id="edge12" class="edge">
<title>register&#45;&gt;generate</title>
<path fill="none" stroke="black" stroke-width="4" stroke-dasharray="1,5" d="M117.25,-220.35C117.25,-212.9 117.25,-203.86 117.25,-194.87"/>
<polygon fill="black" stroke="black" stroke-width="4" points="119,-195.1 117.25,-190.1 115.5,-195.1 119,-195.1"/>
</g>
<!-- publish -->
<g id="node12" class="node">
<title>publish</title>
<path fill="none" stroke="black" d="M188.25,-84.75C188.25,-84.75 46.25,-84.75 46.25,-84.75 40.25,-84.75 34.25,-78.75 34.25,-72.75 34.25,-72.75 34.25,-60.75 34.25,-60.75 34.25,-54.75 40.25,-48.75 46.25,-48.75 46.25,-48.75 188.25,-48.75 188.25,-48.75 194.25,-48.75 200.25,-54.75 200.25,-60.75 200.25,-60.75 200.25,-72.75 200.25,-72.75 200.25,-78.75 194.25,-84.75 188.25,-84.75"/>
<text text-anchor="middle" x="117.25" y="-62.45" font-family="Times" font-size="14.00">Publication on web&#45;site</text>
</g>
<!-- generate&#45;&gt;publish -->
<g id="edge13" class="edge">
<title>generate&#45;&gt;publish</title>
<path fill="none" stroke="black" stroke-width="4" stroke-dasharray="1,5" d="M117.25,-121.42C117.25,-113.12 117.25,-104.15 117.25,-95.97"/>
<polygon fill="black" stroke="black" stroke-width="4" points="119,-96.13 117.25,-91.13 115.5,-96.13 119,-96.13"/>
</g>
<!-- edit -->
<g id="node13" class="node">
<title>edit</title>
<path fill="none" stroke="black" d="M388.88,-84.75C388.88,-84.75 319.62,-84.75 319.62,-84.75 313.62,-84.75 307.62,-78.75 307.62,-72.75 307.62,-72.75 307.62,-60.75 307.62,-60.75 307.62,-54.75 313.62,-48.75 319.62,-48.75 319.62,-48.75 388.88,-48.75 388.88,-48.75 394.88,-48.75 400.88,-54.75 400.88,-60.75 400.88,-60.75 400.88,-72.75 400.88,-72.75 400.88,-78.75 394.88,-84.75 388.88,-84.75"/>
<text text-anchor="middle" x="354.25" y="-62.45" font-family="Times" font-size="14.00">Edit sources</text>
</g>
<!-- publish&#45;&gt;edit -->
<g id="edge14" class="edge">
<title>publish&#45;&gt;edit</title>
<path fill="none" stroke="black" stroke-width="4" stroke-dasharray="1,5" d="M200.47,-66.75C232.29,-66.75 267.83,-66.75 296.73,-66.75"/>
<polygon fill="black" stroke="black" stroke-width="4" points="296.4,-68.5 301.4,-66.75 296.4,-65 296.4,-68.5"/>
<text text-anchor="middle" x="253.94" y="-92.45" font-family="Helvetica,Arial,sans-serif" font-size="14.00">public</text>
<text text-anchor="middle" x="253.94" y="-74.45" font-family="Helvetica,Arial,sans-serif" font-size="14.00">edits</text>
</g>
<!-- edit&#45;&gt;canonical -->
<g id="edge16" class="edge">
<title>edit&#45;&gt;canonical</title>
<path fill="none" stroke="black" stroke-width="4" stroke-dasharray="1,5" d="M375.88,-84.97C392.72,-100.45 413.25,-124.84 413.25,-151.75 413.25,-325.75 413.25,-325.75 413.25,-325.75 413.25,-344.25 413.25,-364.93 413.25,-381.59"/>
<polygon fill="black" stroke="black" stroke-width="4" points="411.5,-381.36 413.25,-386.36 415,-381.36 411.5,-381.36"/>
<text text-anchor="middle" x="465" y="-243.45" font-family="Helvetica,Arial,sans-serif" font-size="14.00">authorisation by</text>
<text text-anchor="middle" x="465" y="-225.45" font-family="Helvetica,Arial,sans-serif" font-size="14.00">developer</text>
</g>
<!-- edit&#45;&gt;derivative -->
<g id="edge15" class="edge">
<title>edit&#45;&gt;derivative</title>
<path fill="none" stroke="black" stroke-width="4" stroke-dasharray="1,5" d="M308.77,-85.22C281.96,-98.8 253.25,-120.62 253.25,-151.75 253.25,-325.75 253.25,-325.75 253.25,-325.75 253.25,-344.68 249.2,-365.45 244.94,-382.05"/>
<polygon fill="black" stroke="black" stroke-width="4" points="243.37,-381.18 243.75,-386.46 246.75,-382.09 243.37,-381.18"/>
<text text-anchor="middle" x="315.12" y="-243.45" font-family="Helvetica,Arial,sans-serif" font-size="14.00">authorisation by</text>
<text text-anchor="middle" x="315.12" y="-225.45" font-family="Helvetica,Arial,sans-serif" font-size="14.00">derivative language</text>
</g>
</g>
</svg>
